<svg xmlns="http://www.w3.org/2000/svg" viewBox="0 0 200 200">
  <rect width="200" height="200" rx="44" fill="#F0F8FF"/>
  <g transform="translate(100,100) scale(1.18) translate(-645,-360)">
    <path fill="#0781FE" d="M631.315 285.832C633.036 285.532 633.33 285.364 634.929 285.881C634.055 287.333 632.246 288.202 630.757 289.05C598.761 307.073 579.665 352.621 601.968 385.236C618.057 408.764 643.646 413.966 669.07 403.463C658.64 413.027 651.568 416.502 638.53 421.587C635.418 422.494 632.281 423.315 629.122 424.048C604.58 429.577 577.07 421.183 565.097 397.802C546.559 361.599 565.932 318.002 599.053 298.084C609.875 291.576 619.012 288.341 631.315 285.832Z"/>
    <path fill="#0781FE" d="M612.63 314.974C630.04 300.967 650.809 294.562 673.12 296.724C706.061 299.915 724.937 327.462 721.153 359.58C718.266 382.304 706.507 402.961 688.443 417.044C674.931 427.557 660.148 433.805 643.055 435.242C649.653 431.611 655.1 428.318 660.828 423.371C684.124 403.251 696.105 368.356 680.08 339.956C673.004 327.41 661.202 318.217 647.307 314.427C636.214 311.415 624.405 311.889 613.803 316.452L612.63 314.974Z"/>
    <path fill="#0099C8" d="M612.63 314.974L613.803 316.452C613.14 316.809 610.461 318.516 609.778 317.935C609.469 317.075 611.991 315.381 612.63 314.974Z"/>
  </g>
</svg>
